<svg width="24" height="24" viewBox="0 0 24 24" fill="none" xmlns="http://www.w3.org/2000/svg">
<path fill-rule="evenodd" clip-rule="evenodd" d="M7 8.25C6.58579 8.25 6.25 8.58579 6.25 9L6.25 19C6.25 19.4142 6.58579 19.75 7 19.75C7.41421 19.75 7.75 19.4142 7.75 19L7.75 9C7.75 8.58579 7.41421 8.25 7 8.25Z" fill="#112A46"/>
<path fill-rule="evenodd" clip-rule="evenodd" d="M12 6.25C11.5858 6.25 11.25 6.58579 11.25 7V19C11.25 19.4142 11.5858 19.75 12 19.75C12.4142 19.75 12.75 19.4142 12.75 19V7C12.75 6.58579 12.4142 6.25 12 6.25Z" fill="#112A46"/>
<path fill-rule="evenodd" clip-rule="evenodd" d="M17 4.25C16.5858 4.25 16.25 4.58579 16.25 5V19C16.25 19.4142 16.5858 19.75 17 19.75C17.4142 19.75 17.75 19.4142 17.75 19V5C17.75 4.58579 17.4142 4.25 17 4.25Z" fill="#112A46"/>
</svg>
