<svg width="35" height="35" viewBox="0 0 35 35" xmlns="http://www.w3.org/2000/svg" style="fill-rule:evenodd;clip-rule:evenodd;stroke-linejoin:round;stroke-miterlimit:2;">
<g filter="url(#filter0_d_7_66)">
<g filter="url(#filter1_d_7_66)">
<path fill-rule="evenodd" clip-rule="evenodd" d="M28.8021 17.5C28.8021 16.896 28.3124 16.4063 27.7083 16.4063H7.29167C6.68761 16.4063 6.19792 16.896 6.19792 17.5C6.19792 18.1041 6.68761 18.5938 7.29167 18.5938H27.7083C28.3124 18.5938 28.8021 18.1041 28.8021 17.5Z" />
<path fill-rule="evenodd" clip-rule="evenodd" d="M28.8021 10.2083C28.8021 9.60428 28.3124 9.11459 27.7083 9.11459H7.29167C6.68761 9.11459 6.19792 9.60428 6.19792 10.2083C6.19792 10.8124 6.68761 11.3021 7.29167 11.3021H27.7083C28.3124 11.3021 28.8021 10.8124 28.8021 10.2083Z" />
<path fill-rule="evenodd" clip-rule="evenodd" d="M28.8021 24.7917C28.8021 24.1876 28.3124 23.6979 27.7083 23.6979H7.29167C6.68761 23.6979 6.19792 24.1876 6.19792 24.7917C6.19792 25.3957 6.68761 25.8854 7.29167 25.8854H27.7083C28.3124 25.8854 28.8021 25.3957 28.8021 24.7917Z" />
</g>
</g>
<defs>

</defs>
</svg>
