<svg width="24" height="24" viewBox="0 0 24 24" fill="none" xmlns="http://www.w3.org/2000/svg">
<path fill-rule="evenodd" clip-rule="evenodd" d="M7.37277 10.7379C7.37277 9.96427 7.964 9.31895 8.73465 9.2514C10.3459 9.11015 11.9644 9.07441 13.5797 9.14427C13.5854 9.05994 13.5912 8.97563 13.5974 8.89133L13.706 7.40178C13.7754 6.44973 14.8369 5.91752 15.6413 6.43151C17.3568 7.5277 19.2769 9.53693 20.4646 11.1904C20.8122 11.6742 20.8122 12.3258 20.4646 12.8097C19.2769 14.4631 17.3568 16.4723 15.6413 17.5685C14.8369 18.0825 13.7754 17.5503 13.706 16.5983L13.5974 15.1087C13.5912 15.0244 13.5854 14.9401 13.5797 14.8558C11.9644 14.9256 10.3459 14.8899 8.73465 14.7486C7.964 14.6811 7.37277 14.0358 7.37277 13.2622V10.7379ZM14.2375 10.6815C12.4503 10.5678 10.6569 10.589 8.87277 10.745V13.255C10.6569 13.411 12.4503 13.4323 14.2375 13.3185C14.4379 13.3058 14.635 13.3739 14.7847 13.5077C14.9345 13.6414 15.0243 13.8296 15.0342 14.0301C15.0501 14.3535 15.0699 14.6767 15.0934 14.9997L15.1723 16.0815C16.5856 15.1219 17.8198 13.9204 18.8177 12.5313L19.1993 12L18.8177 11.4687C17.8198 10.0796 16.5856 8.87813 15.1723 7.91858L15.0934 9.00038C15.0699 9.32337 15.0501 9.64656 15.0342 9.9699C15.0243 10.1704 14.9345 10.3586 14.7847 10.4924C14.635 10.6261 14.4379 10.6942 14.2375 10.6815Z" fill="black"/>
<path d="M7.00003 5.75C7.41424 5.75 7.75003 5.41421 7.75003 5C7.75003 4.58579 7.41424 4.25 7.00003 4.25H5.00003C4.03353 4.25 3.25003 5.0335 3.25003 6L3.25003 18C3.25003 18.9665 4.03353 19.75 5.00003 19.75L7.00003 19.75C7.41424 19.75 7.75003 19.4142 7.75003 19C7.75003 18.5858 7.41424 18.25 7.00003 18.25L5.00003 18.25C4.86196 18.25 4.75003 18.1381 4.75003 18L4.75003 6C4.75003 5.86193 4.86196 5.75 5.00003 5.75H7.00003Z" fill="black"/>
</svg>
